<?xml version="1.0" encoding="UTF-8" standalone="no"?><!DOCTYPE svg PUBLIC "-//W3C//DTD SVG 1.1//EN" "http://www.w3.org/Graphics/SVG/1.1/DTD/svg11.dtd"><svg width="100%" height="100%" viewBox="0 0 1816 1816" version="1.1" xmlns="http://www.w3.org/2000/svg" xmlns:xlink="http://www.w3.org/1999/xlink" xml:space="preserve" xmlns:serif="http://www.serif.com/" style="fill-rule:evenodd;clip-rule:evenodd;stroke-linejoin:round;stroke-miterlimit:2;"><g><path d="M1538.38,1815.79c-27.833,0 -50.438,-22.609 -50.438,-50.434l0.001,-1664.48l-1160.09,0l0,1664.48c0,27.829 -22.596,50.433 -50.437,50.433c-27.842,0 -50.438,-22.608 -50.438,-50.433l0,-1714.91c0,-27.841 22.596,-50.437 50.438,-50.437l1260.96,0c27.829,0 50.433,22.596 50.433,50.437l0,1714.91c0.005,27.829 -22.604,50.438 -50.433,50.438Zm-113.487,-1626.64l0,1576.2l-1033.99,0l0,-1576.2l1033.99,0Zm-781.796,800.708c0,-45.262 -31.046,-81.958 -69.354,-81.958c-38.309,0 -69.355,36.696 -69.355,81.958c0,45.267 31.046,81.967 69.355,81.967c38.308,0 69.354,-36.7 69.354,-81.967Z" style="fill-rule:nonzero;"/></g></svg>